<?xml version="1.0" encoding="UTF-8"?>
<!DOCTYPE svg PUBLIC "-//W3C//DTD SVG 1.1//EN" "http://www.w3.org/Graphics/SVG/1.1/DTD/svg11.dtd">
<svg xmlns="http://www.w3.org/2000/svg" version="1.1" width="180px" height="180px" style="shape-rendering:geometricPrecision; text-rendering:geometricPrecision; image-rendering:optimizeQuality; fill-rule:evenodd; clip-rule:evenodd" xmlns:xlink="http://www.w3.org/1999/xlink">
<g><path style="opacity:1" fill="#fcfcfc" d="M -0.5,-0.5 C 59.5,-0.5 119.5,-0.5 179.5,-0.5C 179.5,59.5 179.5,119.5 179.5,179.5C 119.5,179.5 59.5,179.5 -0.5,179.5C -0.5,119.5 -0.5,59.5 -0.5,-0.5 Z"/></g>
<g><path style="opacity:1" fill="#393b3b" d="M 161.5,79.5 C 161.831,106.005 161.498,132.339 160.5,158.5C 158.537,157.04 156.704,155.373 155,153.5C 154.667,128.833 154.333,104.167 154,79.5C 146.499,44.9953 125.166,26.6619 90,24.5C 61.2743,25.6952 40.9409,39.3619 29,65.5C 27.1593,70.7025 25.826,76.0359 25,81.5C 24.6667,105.5 24.3333,129.5 24,153.5C 22.2962,155.373 20.4628,157.04 18.5,158.5C 17.5021,132.005 17.1688,105.339 17.5,78.5C 24.3586,44.1416 45.0253,23.6416 79.5,17C 115.087,13.6254 140.921,27.7921 157,59.5C 159.767,65.8987 161.267,72.5653 161.5,79.5 Z"/></g>
<g><path style="opacity:1" fill="#3a3b3c" d="M 78.5,36.5 C 111.361,33.2434 132.528,47.2434 142,78.5C 142.667,99.1667 142.667,119.833 142,140.5C 139.667,138.167 137.333,135.833 135,133.5C 134.667,116.5 134.333,99.5 134,82.5C 129.241,58.4102 114.574,45.7435 90,44.5C 67.6334,45.1964 52.9667,56.1964 46,77.5C 44.7624,96.1333 44.0957,114.8 44,133.5C 41.6667,135.833 39.3333,138.167 37,140.5C 36.3333,121.167 36.3333,101.833 37,82.5C 41.2576,58.4141 55.091,43.0808 78.5,36.5 Z"/></g>
<g><path style="opacity:1" fill="#3d3f3f" d="M 80.5,55.5 C 101.92,52.6153 116.087,61.282 123,81.5C 123.667,94.8333 123.667,108.167 123,121.5C 120.333,118.833 117.667,116.167 115,113.5C 114.667,102.5 114.333,91.5 114,80.5C 108.124,67.3297 97.9576,61.8297 83.5,64C 74.4016,66.7659 68.2349,72.5992 65,81.5C 64.6667,92.1667 64.3333,102.833 64,113.5C 61.3333,116.167 58.6667,118.833 56,121.5C 55.3333,108.833 55.3333,96.1667 56,83.5C 59.076,69.5976 67.2427,60.2643 80.5,55.5 Z"/></g>
<g><path style="opacity:1" fill="#3b3c3c" d="M 84.5,73.5 C 93.5897,72.0164 100.09,75.3498 104,83.5C 104.667,89.8333 104.667,96.1667 104,102.5C 101.667,100.167 99.3333,97.8333 97,95.5C 96.6667,92.1667 96.3333,88.8333 96,85.5C 92.2943,80.7324 88.2943,80.399 84,84.5C 82.8263,88.0458 82.1596,91.7125 82,95.5C 79.6667,97.8333 77.3333,100.167 75,102.5C 74.3333,96.5 74.3333,90.5 75,84.5C 76.5992,79.406 79.7658,75.7393 84.5,73.5 Z"/></g>
<g><path style="opacity:1" fill="#6e6f70" d="M 17.5,78.5 C 17.1688,105.339 17.5021,132.005 18.5,158.5C 18.2172,159.289 17.7172,159.956 17,160.5C 16.1697,132.997 16.3364,105.664 17.5,78.5 Z"/></g>
<g><path style="opacity:1" fill="#afaeae" d="M 88.5,100.5 C 90.0898,100.628 91.4231,101.295 92.5,102.5C 90.5,103.833 88.5,103.833 86.5,102.5C 87.2427,101.818 87.9094,101.151 88.5,100.5 Z"/></g>
<g><path style="opacity:1" fill="#878686" d="M 110.5,120.5 C 96.5,121.833 82.5,121.833 68.5,120.5C 70.9635,118.539 73.2968,116.372 75.5,114C 84.8333,113.333 94.1667,113.333 103.5,114C 105.703,116.372 108.037,118.539 110.5,120.5 Z"/></g>
<g><path style="opacity:1" fill="#d5d5d4" d="M 68.5,120.5 C 82.5,121.833 96.5,121.833 110.5,120.5C 111.043,120.56 111.376,120.893 111.5,121.5C 96.8333,122.833 82.1667,122.833 67.5,121.5C 67.6236,120.893 67.9569,120.56 68.5,120.5 Z"/></g>
<g><path style="opacity:1" fill="#717272" d="M 161.5,79.5 C 162.664,106.33 162.83,133.33 162,160.5C 161.283,159.956 160.783,159.289 160.5,158.5C 161.498,132.339 161.831,106.005 161.5,79.5 Z"/></g>
<g><path style="opacity:1" fill="#888887" d="M 128.5,139.5 C 102.5,140.833 76.5,140.833 50.5,139.5C 52.2941,137.203 54.2941,135.037 56.5,133C 78.5,132.333 100.5,132.333 122.5,133C 124.706,135.037 126.706,137.203 128.5,139.5 Z"/></g>
<g><path style="opacity:1" fill="#acacab" d="M 50.5,139.5 C 76.5,140.833 102.5,140.833 128.5,139.5C 129.289,139.783 129.956,140.283 130.5,141C 103.167,141.667 75.8333,141.667 48.5,141C 49.0442,140.283 49.7109,139.783 50.5,139.5 Z"/></g>
<g><path style="opacity:1" fill="#868685" d="M 149.5,160.5 C 109.663,160.832 69.9965,160.499 30.5,159.5C 32.2941,157.203 34.2941,155.037 36.5,153C 71.8333,152.333 107.167,152.333 142.5,153C 145.039,155.37 147.372,157.87 149.5,160.5 Z"/></g>
<g><path style="opacity:1" fill="#c6c6c5" d="M 30.5,159.5 C 69.9965,160.499 109.663,160.832 149.5,160.5C 109.665,161.831 69.6646,161.831 29.5,160.5C 29.6236,159.893 29.9569,159.56 30.5,159.5 Z"/></g>
</svg>
